#!OML:ASF G:\acrobat\cartwheel_test\acrobat_wednesday\Session 1\acrobatwednesday.ASF
:FULLY-SPECIFIED
:DEGREES
448
root 3.13844 15.8772 -11.1128 -345.281 38.6233 -13.5093
lowerback 12.1225 -0.78234 -5.40423
upperback 2.99157 -1.71858 -1.95311
thorax -3.5527 -0.789842 1.25731
lowerneck -26.4625 1.44196 -7.45068
upperneck 7.8383 3.87572 4.17246
head 6.32779 2.04443 3.03799
rclavicle -1.43125e-014 -7.4743e-014
rhumerus -19.2147 11.7961 -41.0583
rradius 41.2749
rwrist 32.5105
rhand -34.1172 368.548
rfingers 7.12502
rthumb -7.29274 -381.306
lclavicle -1.43125e-014 -7.4743e-014
lhumerus -17.8401 17.8627 41.1447
lradius 29.2163
lwrist 20.5331
lhand -28.5037 -734.998
lfingers 7.12502
lthumb -1.87242 14.9731
rfemur -10.603 -359.358 18.8418
rtibia 14.7048
rfoot -15.6024 20.3609
rtoes -5.09069
lfemur -17.2329 -13.558 27.7043
ltibia 1.07893
lfoot 137.805 216.351
ltoes 41.4568
449
root 2.98589 15.9013 -11.0081 -345.319 38.0167 -12.9469
lowerback 11.5365 -1.04642 -5.03816
upperback 2.8277 -1.97475 -1.32006
thorax -3.37772 -0.924918 1.73715
lowerneck -26.1015 1.75987 -7.15485
upperneck 7.15883 4.24348 3.70127
head 6.04465 2.20105 2.85697
rclavicle -6.67916e-014 3.18055e-015
rhumerus -22.6504 8.30407 -41.035
rradius 41.26
rwrist 31.845
rhand -34.9163 367.757
rfingers 7.12502
rthumb -8.06395 -382.069
lclavicle -6.67916e-014 3.18055e-015
lhumerus -21.1959 17.6068 42.8047
lradius 31.7497
lwrist 21.2546
lhand -29.0744 -735.496
lfingers 7.12502
lthumb -2.42352 14.4698
rfemur -10.7133 -359.404 19.0787
rtibia 15.4488
rfoot -14.1504 20.8181
rtoes -6.50989
lfemur -15.9945 -18.8832 27.868
ltibia -1.39508
lfoot 120.048 197.62
ltoes 55.4425
450
root 2.86026 15.9655 -10.9033 -345.657 37.0001 -11.8051
lowerback 11.6104 -1.0465 -5.26118
upperback 2.89341 -1.99354 -1.0494
thorax -3.32987 -0.935718 2.1478
lowerneck -25.4906 1.90836 -6.61056
upperneck 6.16647 4.28436 3.2642
head 5.64997 2.21739 2.60212
rclavicle -1.17681e-013 -2.22639e-014
rhumerus -26.3799 4.08388 -41.1745
rradius 41.1573
rwrist 30.1746
rhand -35.2555 367.276
rfingers 7.12502
rthumb -8.39139 -382.537
lclavicle -1.17681e-013 -2.22639e-014
lhumerus -23.728 17.6386 44.7135
lradius 33.4887
lwrist 21.8289
lhand -29.58 -735.821
lfingers 7.12502
lthumb -2.91184 14.139
rfemur -9.75293 -359.297 18.4958
rtibia 15.4881
rfoot -13.2414 20.4286
rtoes -8.03561
lfemur -14.1075 -23.0796 26.312
ltibia -3.59156
lfoot 112.368 179.21
ltoes 60.2577
451
root 2.74296 16.0567 -10.8132 -345.736 35.9845 -10.7768
lowerback 11.5429 -1.07497 -5.43119
upperback 2.86751 -2.04119 -0.816238
thorax -3.301 -0.959915 2.49135
lowerneck -24.6617 2.00457 -6.10759
upperneck 5.08052 4.25505 2.85063
head 5.19898 2.20063 2.35126
rclavicle 3.26007e-014 -1.59028e-014
rhumerus -29.7863 0.0036526 -41.3853
rradius 40.6524
rwrist 28.0655
rhand -35.3825 363.663
rfingers 7.12502
rthumb -8.51393 -386.146
lclavicle 3.26007e-014 -1.59028e-014
lhumerus -25.2746 18.2379 46.8912
lradius 33.8608
lwrist 22.4736
lhand -29.9466 -735.886
lfingers 7.12502
lthumb -3.26593 14.0685
rfemur -9.02698 -359.23 17.9585
rtibia 15.1689
rfoot -13.0213 19.5439
rtoes -9.77623
lfemur -12.8654 -25.7151 24.6359
ltibia -5.37073
lfoot 108.357 155.221
ltoes 63.1121
452
root 2.65022 16.1723 -10.734 -345.881 35.23 -10.0342
lowerback 11.5489 -1.21386 -5.23076
upperback 2.78953 -2.19516 -0.490356
thorax -3.36834 -1.03555 2.74162
lowerneck -24.2057 2.10935 -5.96058
upperneck 4.56062 4.33774 2.69908
head 4.96828 2.24059 2.27067
rclavicle -2.62396e-014 -7.95139e-015
rhumerus -32.8018 -3.47618 -41.4979
rradius 39.5719
rwrist 26.6159
rhand -36.8475 364.459
rfingers 7.12502
rthumb -9.92753 -385.287
lclavicle -2.62396e-014 -7.95139e-015
lhumerus -25.9883 18.963 49.4908
lradius 33.0475
lwrist 23.0614
lhand -30.5508 -736.238
lfingers 7.12502
lthumb -3.84938 13.7065
rfemur -8.18165 -359.161 17.651
rtibia 14.3858
rfoot -14.061 18.3196
rtoes -9.72478
lfemur -12.3443 -28.1369 23.2732
ltibia -6.57484
lfoot 107.48 153.086
ltoes 63.069
